<?xml version="1.0" encoding="utf-8"?>
<!DOCTYPE svg PUBLIC "-//W3C//DTD SVG 1.1//EN" "http://www.w3.org/Graphics/SVG/1.1/DTD/svg11.dtd">
<svg version="1.1" id="Layer_1" xmlns="http://www.w3.org/2000/svg" xmlns:xlink="http://www.w3.org/1999/xlink" x="0px" y="0px"
	 viewBox="0 0 325 325" enable-background="new 0 0 325 325" xml:space="preserve">
<g>
	<path fill="#FFFFFF" stroke="#FFFFFF" stroke-width="9.375000e-002" d="M104.3,68.2c6.8-3.5,14.7,0.9,18.3,6.9
		c-11-2.9-22.4,0.8-31.9,6.4C91.9,74.9,98.7,70.9,104.3,68.2z"/>
	<path fill="#FFFFFF" stroke="#FFFFFF" stroke-width="9.375000e-002" d="M145.5,68.6c4.8-1.8,10.1-0.8,14.4,1.6
		c2.5,1.4,3.4,4.4,4.7,6.8c-9.5-5.3-21.4-4.2-31.1-0.2C136.3,72.7,141,70.3,145.5,68.6z"/>
	<path fill="#FFFFFF" stroke="#FFFFFF" stroke-width="9.375000e-002" d="M120.2,77.5c7.3,0.6,6.5,11.1,1.5,14.3
		c-5.9,3.8-13.7,6.9-20.5,3.8c-4.8-1.8-10.3-4.6-11.4-10.2c1.6-1,3.2-2,4.9-3c3.7,3.8,9.1,6,14.4,4.7
		C114.1,86.8,120.7,83.4,120.2,77.5z"/>
	<path fill="#FFFFFF" stroke="#FFFFFF" stroke-width="9.375000e-002" d="M132.8,81.9c0.4-1.9,2.3-2.5,3.8-3.4
		c4.2,3.6,9.8,5.7,15.3,4.7c3.9-0.4,7.2-2.7,10.4-4.8c1.1,0.9,2.4,1.9,2.5,3.4c1.1,3.9-2.2,7.2-5.5,8.6c-7.2,2.9-15.9,3-22.6-1.3
		C134.2,87.8,132.4,84.9,132.8,81.9z"/>
	<path fill="#FFFFFF" stroke="#FFFFFF" stroke-width="9.375000e-002" d="M121.3,101c2.3-1.7,5-2.9,7.9-3.1c2.9,0.4,4.8,2.8,6.1,5.1
		c-2.6,1.9-5.9,3.5-9.2,2.8C123.7,105.2,122.4,102.9,121.3,101z"/>
	<path fill="#FFFFFF" stroke="#FFFFFF" stroke-width="9.375000e-002" d="M95.9,122.8c1.6-2.5,3.4-5.2,6.2-6.5
		c5.1,2.4,10.4,4.7,16,5.8c-3.2,4.4-6.3,8.9-7.8,14.2c-0.9,3.9-0.9,7.9-1.5,11.8c-5.8-1.1-13.1-3.5-14.6-10
		C93.6,133,92.8,127.3,95.9,122.8z"/>
	<path fill="#FFFFFF" stroke="#FFFFFF" stroke-width="9.375000e-002" d="M128.1,121.6c5-0.4,9.9-2.2,15-2.1c2.1,6.7-1.4,13.2-5,18.6
		c-1.9,2.9-5.3,4.4-8.3,5.9c-5.3,2.4-11,4.1-16.8,4.2c-1.8-1.1-1.1-3.4-1.3-5.1c0-7.2,3.4-13.9,8.3-19.1
		C122.1,121.7,125.4,122.1,128.1,121.6z"/>
	<path fill="#54412B" stroke="#54412B" stroke-width="9.375000e-002" d="M63.5,26.5c14-9.3,30.2-14.3,46.5-17.6
		c5.2-1.1,10.6-0.5,15.9-0.6c11,0.1,21.9-0.2,32.9,0.1c20.4,2.7,40.3,9.1,58.8,17.9c6.6,3.5,13.2,7.1,19,11.9
		c10.2,8.8,18.6,19.7,24.1,32.1c9.5,20.5,11,43.4,12.3,65.6c0.6,6.6-0.1,13.7,2.8,19.9c3.4,7.6,8.4,14.3,13.2,21.1
		c3.5,5.1,9.6,8,12,13.9c1.7,3.9,3.1,9.3-0.4,12.7c-4.8,4.6-11.3,6.9-17.5,8.9c0.3,5,3.1,9.6,3,14.7c0,2.8-2.5,4.5-4.4,6.2
		c0.3,3.8,0.8,7.7-0.3,11.4c-4.2,1.4-6,5.8-7,9.6c1.4,6.3,5,12.2,4.5,18.8c-0.4,5-1,10.4-4.2,14.6c-2.3,3-6.1,4.3-9.7,5.1
		c-5.7,1-11.3,2.4-17,2.9c-6.3,0.6-12.8,0.2-19.1,1.5c-8.7,2.2-17.4,5.6-24.2,11.8c-4.4,4-4.5,10.5-4.7,16c-1.7,0-3.4,0-5.1,0.1
		c0-6.7,0.6-14.3,5.7-19.2c6.8-6.6,15.7-10.5,24.7-13c7-2,14.4-1.8,21.6-2.2c5.6-0.3,11.1-1.8,16.6-2.7c3.1-0.7,6.9-1.6,8.1-5
		c2.5-5.9,2.7-12.9,0.4-18.9c-1.1-3.5-3.4-7-2.3-10.8c1.2-5.1,4.7-9.1,7.9-13.1c-0.4-2.9-1.2-5.8-0.9-8.7c1.3-1.6,2.9-2.9,4.5-4.3
		c-0.7-6-6-13.2-1-18.6c5.4-2.9,12-3.8,16.6-8.3c1.6-1.7,0.6-4.1,0-6c-2-5.3-7.3-8.1-10.6-12.4c-4.5-5.9-8.8-12.1-12.5-18.6
		c-2.4-4.4-4.8-9-5.2-14.1c-1.4-22.4-1.6-45.3-8.8-66.9C253.4,62.1,239.7,44,221,34c-16.1-8.9-33.7-14.8-51.6-18.6
		c-16.9-3.3-34.5-5.2-51.6-2.6c-10.3,1.6-20.6,4.1-30.4,7.6C73.1,25.4,60.3,34,49,44c-8.4,7.5-15.9,16.5-19.7,27.2
		c-7.9,21.6-9.9,45.2-6.3,67.8c1.5,10.2,3.8,20.4,8.3,29.7c5.1,10.8,11.5,20.9,18.6,30.4c5.9,7.1,12.9,13.1,19.7,19.2
		c1,23.2-2.8,46.5-9.5,68.6c-4,13.4-10.8,25.7-17.3,38c-1.9-0.1-3.7-0.1-5.6-0.2c6.1-11.7,12.8-23.2,16.9-35.8
		c7.3-21.9,11.1-45.1,10.5-68.2c-7.7-7.2-15.9-14-21.8-22.7c-7.2-10.3-13.7-21.1-18.5-32.7c-5.2-13.6-7.1-28.3-8-42.8
		c-0.6-10,0.4-19.9,2-29.7c2.5-13.5,6.2-27.3,14.3-38.6C40.8,43.2,51.9,34.3,63.5,26.5z"/>
	<path fill="#54412B" stroke="#54412B" stroke-width="9.375000e-002" d="M93.9,25c15.2-4.7,31.3-6.1,47.1-6
		c13.4-0.2,27.1,0.4,39.6,5.5c11,4.8,22,9.6,32.6,15.3c15.3,8,26.6,21.6,36.6,35.3c6.1,10,6.9,22.3,6,33.7
		c-1.2,8.8-4.6,17.9-11.6,23.6c-3.8,3.2-8.6,4.8-13.4,5.4c-8.2,1.3-16.5,2.5-24.7,4c1.4,4.7,2.8,9.8,1.3,14.6
		c-1.3,4.2-4.2,7.8-7.7,10.5c-4.9,3.5-9.4,8.1-15.4,9.6c-9,2.9-18.3-0.1-26.7-3.4c-3.8,5.9-8.1,11.6-10.5,18.2
		c-1.4,3.9-2.9,7.8-3.8,11.8c-0.6,4.5,1.6,10.3-2.4,13.7c-6.3,4.4-15.8,5-21.9-0.1c-0.2-3-0.2-5.9-0.3-8.9
		c-4.5,3.2-10.3,4.6-15.7,3.6c-3.2-0.6-5.3-3.3-7.4-5.5c-6.8,1.1-14,1-20.3-2.3c-9.9-4.8-16.3-15-18.6-25.5
		c-5.8-1.9-13.3-0.9-17.4-6.4c-6.1-7.6-8.9-17.3-10.8-26.6c-1.1-17.9-0.8-36.3,4.1-53.7c5.7-20.6,19.5-37.7,34.9-51.9
		C74.9,32.5,84.3,28.1,93.9,25 M100.2,28.2C88.4,31,77,36.7,68.3,45.3C59,54.5,50.2,64.4,43.9,75.9c-8.8,16.2-11.1,34.9-11.1,53
		c0.1,6.6-0.4,13.4,1.3,19.9c1.6,6,3.3,12,6.6,17.3c1.5,2.2,3.4,4.6,6.2,5c4.7,0.9,9.3,1.8,13.9,2.9c1.3,9.9,6.3,19.8,15.3,24.7
		c6.4,3.8,14.2,3.3,21.2,1.7c2.3,2.6,4.5,6.6,8.6,6.4c7.1,0.7,12.2-5,17.6-8.6c-0.1,5.6-0.1,11.2,0,16.8c4.9,0.4,10.4,0.9,14.6-2.3
		c0.8-3.7-0.1-7.5,0.5-11.3c2.3-9.6,6.2-18.9,12-26.9c1.9-2.3,3-6.3,6.3-6.7c4.9,0.8,9.2,3.6,14.1,4.3c7,1.7,14.7-0.2,20.1-5
		c4.1-3.6,9.6-6.2,11.6-11.6c1.9-4.9-1.3-9.8-1.3-14.7c-0.2-2.5,2.5-4,4.7-4.3c8.6-1.4,17.2-2.6,25.8-4.1c5.3-0.9,10.3-3.9,13.5-8.3
		c4.3-5.9,6.3-13.2,6.3-20.4c0.3-10.5-1.8-21.7-8.6-30c-8.3-10.9-17.6-21.5-29.5-28.5c-11.1-6.3-23-11.3-34.7-16.5
		c-11-4.6-23.1-5.2-34.9-5.3C129.3,23.7,114.5,24.4,100.2,28.2z"/>
	<path fill="#FFD098" stroke="#FFD098" stroke-width="9.375000e-002" d="M117.8,12.8c17.2-2.6,34.7-0.8,51.6,2.6
		c17.9,3.7,35.5,9.7,51.6,18.6c18.7,10,32.3,28.1,38.9,48.1c7.1,21.5,7.4,44.5,8.8,66.9c0.4,5.1,2.8,9.7,5.2,14.1
		c3.6,6.5,7.9,12.6,12.5,18.6c3.3,4.3,8.6,7.1,10.6,12.4c0.6,1.9,1.7,4.3,0,6c-4.6,4.4-11.2,5.4-16.6,8.3c-5,5.4,0.3,12.5,1,18.6
		c-1.5,1.4-3.1,2.8-4.5,4.3c-0.3,2.9,0.5,5.8,0.9,8.7c-3.2,4-6.7,8-7.9,13.1c-1.1,3.8,1.2,7.3,2.3,10.8c2.4,6,2.1,12.9-0.4,18.9
		c-1.2,3.4-5,4.3-8.1,5c-5.5,1-11,2.5-16.6,2.7c-7.2,0.4-14.6,0.2-21.6,2.2c-9,2.5-17.9,6.4-24.7,13c-5.1,4.9-5.7,12.5-5.7,19.2
		l0.9,0.1H43.4l-0.7,0c6.6-12.3,13.4-24.6,17.3-38c6.7-22.2,10.5-45.4,9.5-68.6c-6.8-6.1-13.8-12.1-19.7-19.2
		c-7.1-9.5-13.5-19.7-18.6-30.4c-4.5-9.3-6.8-19.5-8.3-29.7c-3.5-22.7-1.6-46.3,6.3-67.8C33.1,60.5,40.5,51.5,49,44
		c11.3-10,24.1-18.6,38.4-23.6C97.2,16.9,107.4,14.4,117.8,12.8 M93.9,25c-9.6,3.1-19,7.6-26.5,14.5C52.1,53.7,38.2,70.8,32.5,91.4
		c-4.8,17.4-5.2,35.8-4.1,53.7c1.9,9.4,4.7,19,10.8,26.6c4.1,5.5,11.6,4.5,17.4,6.4c2.3,10.5,8.7,20.7,18.6,25.5
		c6.3,3.2,13.5,3.4,20.3,2.3c2.1,2.2,4.2,4.8,7.4,5.5c5.5,1,11.2-0.3,15.7-3.6c0,2.9,0.1,5.9,0.3,8.9c6.1,5.1,15.5,4.5,21.9,0.1
		c4-3.4,1.8-9.2,2.4-13.7c0.8-4.1,2.4-7.9,3.8-11.8c2.4-6.7,6.8-12.3,10.5-18.2c8.4,3.3,17.7,6.3,26.7,3.4
		c6.1-1.5,10.5-6.1,15.4-9.6c3.5-2.6,6.4-6.2,7.7-10.5c1.5-4.9,0.1-9.9-1.3-14.6c8.2-1.5,16.4-2.7,24.7-4c4.8-0.7,9.7-2.2,13.4-5.4
		c7.1-5.7,10.4-14.8,11.6-23.6c0.9-11.4,0.1-23.7-6-33.7c-10-13.7-21.3-27.3-36.6-35.3c-10.6-5.6-21.6-10.5-32.6-15.3
		c-12.5-5.1-26.3-5.7-39.6-5.5C125.2,18.9,109.1,20.3,93.9,25z"/>
	<path fill="#808080" stroke="#808080" stroke-width="9.375000e-002" d="M100.2,28.2c14.3-3.7,29.1-4.5,43.8-4.6
		c11.8,0.1,23.9,0.8,34.9,5.3c11.7,5.2,23.5,10.2,34.7,16.5c12,7,21.2,17.6,29.5,28.5c6.8,8.3,8.9,19.5,8.6,30
		c0,7.2-2,14.6-6.3,20.4c-3.2,4.4-8.1,7.4-13.5,8.3c-8.6,1.5-17.2,2.7-25.8,4.1c-2.2,0.3-4.8,1.8-4.7,4.3c-0.1,4.9,3.2,9.8,1.3,14.7
		c-2,5.4-7.5,8-11.6,11.6c-5.4,4.8-13.1,6.7-20.1,5c-4.9-0.8-9.2-3.5-14.1-4.3c-3.3,0.4-4.4,4.4-6.3,6.7c-5.8,8-9.7,17.3-12,26.9
		c-0.6,3.7,0.3,7.6-0.5,11.3c-4.2,3.2-9.7,2.7-14.6,2.3c-0.2-5.6-0.2-11.2,0-16.8c-5.3,3.7-10.5,9.3-17.6,8.6
		c-4,0.2-6.2-3.7-8.6-6.4c-7,1.6-14.8,2.1-21.2-1.7c-9-4.9-14-14.8-15.3-24.7c-4.6-1.1-9.3-2-13.9-2.9c-2.9-0.4-4.7-2.8-6.2-5
		c-3.3-5.3-5-11.3-6.6-17.3c-1.8-6.5-1.2-13.3-1.3-19.9c0-18.1,2.3-36.9,11.1-53C50.2,64.4,59,54.5,68.3,45.3
		C77,36.7,88.4,31,100.2,28.2 M95,66C87,73.8,81.6,84.7,81.7,96c-0.4,10.4,2.7,21.8,10.5,29.1c-2,5.4-1.5,11.6,0.7,16.9
		c2.3,5.2,8.1,7.4,13.1,8.9c7.2,1.5,14.6-0.3,21.4-2.6c3.8-1.7,8.2-3,10.9-6.5c9-1.7,17.9-5.5,24.6-11.9
		c9.8-8.7,15.2-21.9,14.7-34.9c-0.9-9.2-4.2-18.3-10.1-25.5c-9.7-11.2-24.6-18.1-39.5-17.4C115.7,52.3,104,57.8,95,66z"/>
	<path fill="#46CA81" stroke="#46CA81" stroke-width="9.375000e-002" d="M177.7,95c-0.9-9.2-4.2-18.3-10.2-25.5
		c-9.7-11.2-24.6-18.1-39.5-17.3c-12.3,0.1-24,5.6-33,13.8C87,73.8,81.6,84.7,81.7,96c-0.3,10.4,2.7,21.8,10.5,29.1
		c1.6-4,4.3-7.3,7.1-10.4c-2.9-3.5-6.8-6.5-8.1-11.1c4.8,3.2,8.3,7.9,13.3,10.9c5.6,3.3,12,5.3,18.5,5c9.2-0.2,18.8-1.8,26.8-6.5
		c4.7-2.6,7.4-7.4,10.6-11.5c0.1,8.5-8.2,13.6-15.1,16.7c0.5,4,1.1,8.2-0.3,12.1c-1.5,4.2-4,8.1-6.7,11.7c9-1.7,17.9-5.5,24.6-11.9
		C172.8,121.3,178.2,108.1,177.7,95z M88.9,90.1c-2.6-3.6-1.2-8.2,0.2-11.9c3.1-6.9,10.2-11,17.2-12.8c3.4-0.6,7.2-1,10.3,0.9
		c5,2.8,9.1,7.4,10.8,12.9c1.1,5.2,0.3,11.6-4.4,14.8c-4.6,3.2-10.2,5.6-16,5.5C100.2,98.8,93,95.8,88.9,90.1z M137.3,103.8
		c-3.4,5.5-13.4,6.8-16.8,0.7c-0.9-1.2-1.2-2.8-0.9-4.2c2-2.7,5.3-4.2,8.5-4.7c3.8-0.4,6.5,2.5,8.8,5.1
		C137.1,100.3,137.6,104.1,137.3,103.8z M163.3,91.3c-8.9,5.9-21.8,5.4-30-1.5c-3.6-3.7-3.2-9.7-1.5-14.2c3.2-5,8.8-7.9,14.3-9.7
		c3.9-1.5,8.2-1,11.9,0.6c0.5,0.2,1.5,0.7,2,0.9c5.3,1.7,7,7.7,7.5,12.6C168.3,84.3,167.1,89,163.3,91.3z"/>
	<path fill="#020201" stroke="#020201" stroke-width="9.375000e-002" d="M106.3,65.3c3.4-0.6,7.2-1,10.3,0.9
		c5,2.8,9.1,7.4,10.8,12.9c1.1,5.2,0.3,11.6-4.4,14.8c-4.7,3.2-10.2,5.6-16,5.5c-6.9-0.7-14-3.7-18.1-9.4c-2.6-3.6-1.2-8.2,0.2-11.9
		C92.2,71.3,99.3,67.1,106.3,65.3 M104.3,68.2c-5.7,2.7-12.4,6.7-13.7,13.3c9.5-5.6,21-9.3,31.9-6.4C119,69.1,111.1,64.7,104.3,68.2
		 M120.2,77.5c0.5,5.9-6.1,9.2-11.1,9.6c-5.3,1.3-10.7-0.9-14.4-4.7c-1.6,1-3.3,2-4.9,3c1.1,5.5,6.6,8.4,11.4,10.2
		c6.9,3.1,14.6,0,20.5-3.8C126.7,88.6,127.4,78.1,120.2,77.5z"/>
	<path fill="#020201" stroke="#020201" stroke-width="9.375000e-002" d="M131.8,75.6c3.2-5,8.8-7.9,14.3-9.7c3.9-1.5,8.2-1,11.9,0.6
		c0.5,0.2,1.5,0.7,2,0.9c5.3,1.7,7,7.7,7.5,12.6c0.7,4.2-0.5,8.9-4.3,11.3c-8.9,5.9-21.8,5.4-30-1.5
		C129.7,86.1,130.1,80.1,131.8,75.6 M145.5,68.6c-4.5,1.7-9.1,4.1-12,8.2c9.7-4,21.6-5.1,31.1,0.2c-1.3-2.4-2.2-5.3-4.7-6.8
		C155.6,67.8,150.2,66.7,145.5,68.6 M132.8,81.9c-0.4,3,1.4,5.9,4,7.3c6.7,4.3,15.4,4.2,22.6,1.3c3.3-1.4,6.6-4.7,5.5-8.6
		c-0.1-1.6-1.4-2.5-2.5-3.4c-3.2,2.2-6.5,4.4-10.4,4.8c-5.6,1-11.2-1.1-15.3-4.7C135.2,79.4,133.2,80,132.8,81.9z"/>
	<path fill="#020201" stroke="#020201" stroke-width="9.375000e-002" d="M119.6,100.2c2-2.7,5.3-4.2,8.5-4.7
		c3.8-0.4,6.5,2.5,8.8,5.1c0.4,1.1,0.5,2.2,0.4,3.2c-3.4,5.5-13.4,6.8-16.8,0.6C119.6,103.2,119.3,101.7,119.6,100.2 M121.3,101
		c1.1,2,2.4,4.2,4.8,4.8c3.3,0.6,6.6-0.9,9.2-2.8c-1.4-2.4-3.3-4.7-6.1-5.1C126.3,98.1,123.6,99.3,121.3,101z"/>
	<path fill="#020201" stroke="#020201" stroke-width="9.375000e-002" d="M149.8,112.9c4.7-2.6,7.4-7.4,10.6-11.6
		c0.1,8.5-8.2,13.6-15.1,16.7c0.5,4,1.1,8.2-0.3,12.1c-1.5,4.2-4,8.1-6.7,11.7c-2.7,3.5-7.1,4.8-10.9,6.5
		c-6.8,2.3-14.2,4.1-21.4,2.6c-5.1-1.5-10.8-3.8-13.1-8.9c-2.2-5.3-2.6-11.4-0.7-16.9c1.6-3.9,4.3-7.3,7.1-10.4
		c-2.9-3.6-6.8-6.6-8.1-11.1c4.8,3.2,8.3,7.9,13.3,10.9c5.6,3.3,12,5.3,18.5,5C132.3,119.2,141.8,117.6,149.8,112.9 M95.9,122.8
		c-3,4.5-2.2,10.2-1.8,15.2c1.5,6.5,8.7,8.9,14.6,10c0.6-3.9,0.6-7.9,1.5-11.8c1.5-5.3,4.6-9.8,7.8-14.2c-5.6-1.1-10.9-3.4-16-5.8
		C99.3,117.6,97.5,120.3,95.9,122.8 M128.1,121.6c-2.7,0.5-6.1,0.2-8.1,2.4c-4.8,5.1-8.3,11.9-8.3,19.1c0.1,1.7-0.6,4.1,1.3,5.1
		c5.8-0.1,11.5-1.8,16.8-4.2c3-1.5,6.3-3,8.3-5.9c3.6-5.5,7.1-11.9,5-18.6C138,119.4,133.1,121.2,128.1,121.6z"/>
</g>
</svg>
