<?xml version="1.0" encoding="UTF-8" standalone="no"?>
<!-- Created with Inkscape (http://www.inkscape.org/) -->
<svg xmlns:inkscape="http://www.inkscape.org/namespaces/inkscape" xmlns:rdf="http://www.w3.org/1999/02/22-rdf-syntax-ns#" xmlns="http://www.w3.org/2000/svg" xmlns:xlink="http://www.w3.org/1999/xlink" xmlns:ns1="http://sozi.baierouge.fr" xmlns:cc="http://creativecommons.org/ns#" xmlns:sodipodi="http://sodipodi.sourceforge.net/DTD/sodipodi-0.dtd" xmlns:dc="http://purl.org/dc/elements/1.1/" id="svg2" xml:space="preserve" viewBox="0 0 154.5 132.05" version="1.1" inkscape:version="0.91 r13725">
  <defs id="defs6">
    <clipPath id="clipPath18">
      <path id="path20" d="m0-0.36016h124v37h-124v-37z" inkscape:connector-curvature="0"/>
    </clipPath>
    <mask id="mask22">
      <g id="g24">
        <g id="g26" clip-path="url(#clipPath18)">
          <path id="path28" style="fill:#000000;fill-opacity:.62890" d="m0-0.36016h124v37h-124v-37z" inkscape:connector-curvature="0"/>
        </g>
      </g>
    </mask>
    <clipPath id="clipPath34">
      <path id="path36" d="m0-0.36016h124v37h-124v-37z" inkscape:connector-curvature="0"/>
    </clipPath>
    <clipPath id="clipPath38">
      <path id="path40" d="m0 0h124v37h-124v-37z" inkscape:connector-curvature="0"/>
    </clipPath>
    <clipPath id="clipPath42">
      <path id="path44" d="m123.6 18.238c0-4.933-6.043-9.144-18.122-12.636-12.054-3.497-26.613-5.243-43.679-5.243-17.067 0-31.629 1.746-43.68 5.243-12.082 3.492-18.121 7.703-18.121 12.636 0 4.934 6.039 9.16 18.121 12.684 12.051 3.492 26.613 5.238 43.68 5.238 17.066 0 31.625-1.746 43.679-5.238 12.079-3.524 18.122-7.75 18.122-12.684z" inkscape:connector-curvature="0"/>
    </clipPath>
    <clipPath id="clipPath46">
      <path id="path48" d="m0-106.76h155v164.12h-155v-164.12z" inkscape:connector-curvature="0"/>
    </clipPath>
    <radialGradient id="radialGradient50" gradientUnits="userSpaceOnUse" cy="-22.65" cx="77" r="66.575">
      <stop id="stop52" style="stop-color:#ffffff;stop-opacity:.61961" offset="0"/>
      <stop id="stop54" style="stop-color:#ffffff;stop-opacity:0" offset="1"/>
    </radialGradient>
    <mask id="mask56">
      <g id="g58">
        <g id="g60" clip-path="url(#clipPath46)">
          <path id="path62" style="fill:url(#radialGradient50)" d="m0-106.76h155v164.12h-155v-164.12z" inkscape:connector-curvature="0"/>
        </g>
      </g>
    </mask>
    <radialGradient id="radialGradient64" gradientUnits="userSpaceOnUse" cy="-22.65" cx="77" r="66.575">
      <stop id="stop66" style="stop-color:#000000" offset="0"/>
      <stop id="stop68" style="stop-color:#000000" offset="1"/>
    </radialGradient>
    <clipPath id="clipPath100">
      <path id="path102" d="m20 7.6398h93v19h-93v-19z" inkscape:connector-curvature="0"/>
    </clipPath>
    <mask id="mask104">
      <g id="g106">
        <g id="g108" clip-path="url(#clipPath100)">
          <path id="path110" style="fill:#000000;fill-opacity:.14060" d="m20 7.6398h93v19h-93v-19z" inkscape:connector-curvature="0"/>
        </g>
      </g>
    </mask>
    <clipPath id="clipPath116">
      <path id="path118" d="m20 7.6398h93v19h-93v-19z" inkscape:connector-curvature="0"/>
    </clipPath>
    <clipPath id="clipPath120">
      <path id="path122" d="m20 8h93v19h-93v-19z" inkscape:connector-curvature="0"/>
    </clipPath>
    <linearGradient id="linearGradient184" y2="-14691" gradientUnits="userSpaceOnUse" x2="-1181.2" gradientTransform="matrix(.1352 -.78848 .78848 .1352 11802 1102.6)" y1="-14691" x1="-1190">
      <stop id="stop186" style="stop-color:#92979c" offset="0"/>
      <stop id="stop188" style="stop-color:#e3e4e6" offset="1"/>
    </linearGradient>
    <linearGradient id="linearGradient202" y2="-13474" gradientUnits="userSpaceOnUse" x2="-1868.8" gradientTransform="matrix(.2336 -.76512 .76808 .22392 10837 1633.9)" y1="-13474" x1="-1874.7">
      <stop id="stop204" style="stop-color:#92979c" offset="0"/>
      <stop id="stop206" style="stop-color:#e3e4e6" offset="1"/>
    </linearGradient>
    <linearGradient id="linearGradient220" y2="-12768" gradientUnits="userSpaceOnUse" x2="-2281.2" gradientTransform="matrix(.28696 -.74672 .74672 .28696 10230 1997.2)" y1="-12768" x1="-2289.5">
      <stop id="stop222" style="stop-color:#92979c" offset="0"/>
      <stop id="stop224" style="stop-color:#e3e4e6" offset="1"/>
    </linearGradient>
    <linearGradient id="linearGradient238" y2="-14706" gradientUnits="userSpaceOnUse" x2="-1139.2" gradientTransform="matrix(.1352 -.78848 .78848 .1352 11802 1102.6)" y1="-14706" x1="-1148.1">
      <stop id="stop240" style="stop-color:#92979c" offset="0"/>
      <stop id="stop242" style="stop-color:#e3e4e6" offset="1"/>
    </linearGradient>
    <linearGradient id="linearGradient256" y2="-14691" gradientUnits="userSpaceOnUse" x2="-1155.2" gradientTransform="matrix(.13568 -.7884 .7884 .13568 11797 1106.1)" y1="-14691" x1="-1165.6">
      <stop id="stop258" style="stop-color:#92979c" offset="0"/>
      <stop id="stop260" style="stop-color:#e3e4e6" offset="1"/>
    </linearGradient>
    <linearGradient id="linearGradient274" y2="-14678" gradientUnits="userSpaceOnUse" x2="-1145.8" gradientTransform="matrix(.13632 -.78832 .78832 .13632 11791 1110)" y1="-14678" x1="-1152.9">
      <stop id="stop276" style="stop-color:#92979c" offset="0"/>
      <stop id="stop278" style="stop-color:#e3e4e6" offset="1"/>
    </linearGradient>
    <linearGradient id="linearGradient292" y2="-16109" gradientUnits="userSpaceOnUse" x2="38.281" gradientTransform="matrix(.00448 -.8 .8 .00448 12955 134.16)" y1="-16109" x1="29.406">
      <stop id="stop294" style="stop-color:#92979c" offset="0"/>
      <stop id="stop296" style="stop-color:#e3e4e6" offset="1"/>
    </linearGradient>
    <linearGradient id="linearGradient310" y2="-14714" gradientUnits="userSpaceOnUse" x2="-1192.8" gradientTransform="matrix(.1352 -.78848 .78848 .1352 11802 1102.6)" y1="-14714" x1="-1201.7">
      <stop id="stop312" style="stop-color:#92979c" offset="0"/>
      <stop id="stop314" style="stop-color:#e3e4e6" offset="1"/>
    </linearGradient>
    <linearGradient id="linearGradient328" y2="-15738" gradientUnits="userSpaceOnUse" x2="-364.67" gradientTransform="matrix(.04304 -.79888 .79888 .04304 12634 437.98)" y1="-15738" x1="-372.64">
      <stop id="stop330" style="stop-color:#92979c" offset="0"/>
      <stop id="stop332" style="stop-color:#e3e4e6" offset="1"/>
    </linearGradient>
    <linearGradient id="linearGradient346" y2="-13452" gradientUnits="userSpaceOnUse" x2="-1902.6" gradientTransform="matrix(.23528 -.76464 .76776 .2252 10821 1640.3)" y1="-13452" x1="-1909.7">
      <stop id="stop348" style="stop-color:#92979c" offset="0"/>
      <stop id="stop350" style="stop-color:#e3e4e6" offset="1"/>
    </linearGradient>
    <linearGradient id="linearGradient364" y2="-18140" gradientUnits="userSpaceOnUse" x2="2741.1" gradientTransform="matrix(-.22664 -.7672 .76464 -.23544 14544 -2081.6)" y1="-18140" x1="2734.2">
      <stop id="stop366" style="stop-color:#92979c" offset="0"/>
      <stop id="stop368" style="stop-color:#e3e4e6" offset="1"/>
    </linearGradient>
    <linearGradient id="linearGradient382" y2="-14667" gradientUnits="userSpaceOnUse" x2="-1219.1" gradientTransform="matrix(.13504 -.78856 .78856 .13504 11803 1101.6)" y1="-14667" x1="-1225.9">
      <stop id="stop384" style="stop-color:#92979c" offset="0"/>
      <stop id="stop386" style="stop-color:#e3e4e6" offset="1"/>
    </linearGradient>
  </defs>
  <g id="g10" transform="matrix(1.25 0 0 -1.25 0 132.05)">
    <g id="g12">
      <g id="g14">
        <g id="g30" mask="url(#mask22)">
          <g id="g70">
            <g id="g72" clip-path="url(#clipPath34)">
              <g id="g74" transform="translate(0 -.36016)">
                <g id="g78">
                  <g id="g80" clip-path="url(#clipPath38)">
                    <g id="g82">
                      <g id="g84">
                        <g id="g86" clip-path="url(#clipPath42)">
                          <g id="g88" transform="matrix(.8 0 0 -.22544 0 12.933)">
                            <g id="g92" mask="url(#mask56)">
                              <path id="path94" style="fill-rule:evenodd;fill:url(#radialGradient64)" d="m123.6 18.238c0-4.933-6.043-9.144-18.122-12.636-12.054-3.497-26.613-5.243-43.679-5.243-17.067 0-31.629 1.746-43.68 5.243-12.082 3.492-18.121 7.703-18.121 12.636 0 4.934 6.039 9.16 18.121 12.684 12.051 3.492 26.613 5.238 43.68 5.238 17.066 0 31.625-1.746 43.679-5.238 12.079-3.524 18.122-7.75 18.122-12.684z" inkscape:connector-curvature="0"/>
                            </g>
                          </g>
                        </g>
                      </g>
                    </g>
                  </g>
                </g>
              </g>
            </g>
          </g>
        </g>
      </g>
      <g id="g96">
        <g id="g112" mask="url(#mask104)">
          <g id="g124">
            <g id="g126" clip-path="url(#clipPath116)">
              <g id="g128" transform="translate(0 -.36016)">
                <g id="g132">
                  <g id="g134" clip-path="url(#clipPath120)">
                    <g id="g136">
                      <path id="path138" style="fill-rule:evenodd;fill:#000000" d="m112.88 18.121c0.109-0.027-0.027-0.027-0.399 0-1.441 0.16-2.492 0.238-3.16 0.238-0.695 0-1.84-0.066-3.441-0.199-1.598-0.133-2.652-0.199-3.16-0.199-0.664 0-1.321-0.094-1.957-0.281-0.828-0.293-1.574-0.535-2.242-0.719-0.825-0.242-1.575-0.656-2.239-1.242l-0.762-0.758 2.199-1.199c-1.067-0.137-2.797-0.403-5.199-0.801-1.415-0.242-2.387-0.602-2.918-1.082-0.641-0.559-1.067-0.867-1.282-0.918-0.558-0.16-1.32-0.215-2.281-0.16-1.012 0.105-1.719 0.16-2.117 0.16-1.336-0.133-2.934-0.266-4.801-0.402-0.961-0.079-1.547-0.332-1.762-0.758-0.187-0.426-0.664-0.641-1.437-0.641-0.75 0-1.535-0.094-2.363-0.281-0.719-0.16-1.465-0.199-2.239-0.117-0.695 0.05-1.558 0-2.601-0.16-0.907-0.161-1.707-0.176-2.399-0.043-0.879 0.187-1.613 0.214-2.199 0.082-0.133-0.028-0.668-0.188-1.601-0.481-0.481-0.16-1.375-0.172-2.68-0.039-1.68 0.211-2.985 0.359-3.918 0.438l-7.402 0.601c-3.012 0.238-4.493 0.387-4.442 0.442 0.641 0.027 0.856 0.078 0.641 0.16l-2.399 0.398c-1.601 0-2.668 0.067-3.199 0.199-0.32 0.082-0.32 0.243 0 0.481 0.16 0.105 0.359 0.215 0.598 0.32l1.801 1.399c-1.2 0.269-2.598 0.402-4.2 0.402-3.465 0-6 0.066-7.601 0.199-1.598 0.133-1.266 0.399 1 0.801v1.199c-1.332 0-2.199 0.067-2.598 0.199-1.199 0.403-1.535 0.668-1 0.801l2.399 0.801c0.402 0.133 0.132 0.266-0.801 0.398-1.465 0.668-2.399 1-2.797 1h-3.801c-1.121 0-1.453 0.266-1 0.801 0.481 0.535 0.945 0.801 1.399 0.801 0.214 0 0.546 0.094 1 0.277 0.48 0.215 0.812 0.321 1 0.321 0.402 0 0.734 0.203 1 0.601l1.8 0.602v1.597l0.321 0.442c0.425 0.293 1.187 0.48 2.281 0.558l1.398 0.403c1.067 0.265 1.934 0.398 2.602 0.398 41.465 1.067 62.664 1.602 63.598 1.602 1.199 0 2.402-0.403 3.601-1.203 0.399-0.266 0.84-0.454 1.32-0.559 0.774-0.16 2-0.238 3.68-0.238 1.438 0 2.133-0.082 2.078-0.242-0.187-0.426-0.144-0.747 0.121-0.961 0.293-0.239 0.442-0.387 0.442-0.438 0-0.055-0.176-0.082-0.524-0.082-1.332 0-2.703-0.16-4.117-0.48-0.242-0.079 0.211-0.332 1.359-0.758 0.586-0.215 1.2-0.426 1.84-0.641l-1-1.398 1.078-0.481c1.043-0.375 2.348-0.679 3.922-0.922 0.961-0.16 1.481-0.238 1.559-0.238z" inkscape:connector-curvature="0"/>
                    </g>
                  </g>
                </g>
              </g>
            </g>
          </g>
        </g>
      </g>
      <path id="path140" style="fill-rule:evenodd;fill:#c9cacc" d="m82.32 85.921c0.348-1.601 0.52-3.027 0.52-4.281l2.121-5.84 1.68-0.602c1.332-0.371 2.558-0.437 3.679-0.199 1.758 0.348 3.442 0.52 5.039 0.52l0.082-2.801c0.079-2.133 0.239-3.863 0.481-5.199 0.105-0.641 0.183-3.348 0.238-8.117 0.028-4.243 0.293-7.137 0.801-8.684 0.559-1.68 0.867-4.316 0.918-7.918 0.027-1.785-0.012-3.414-0.117-4.879l-0.524-1.961c-0.343-1.414-0.519-2.453-0.519-3.121 0-1.066 0.801-4.344 2.402-9.84-4.801-3.574-8.094-5.894-9.883-6.961-1.465-1.011-2.543-1.703-3.238-2.078-1.145-0.64-2.559-1.015-4.238-1.121-1.657-0.105-3.524-0.039-5.602 0.199l-2.64 0.364c-1.973-2.161-3.227-3.321-3.758-3.481-0.801-0.269-1.242-0.414-1.321-0.441-0.695-0.106-1.668-0.051-2.921 0.16-1.227 0.238-4.305 0.492-9.239 0.762l-7.043 0.316c-2.664 0.348-4.265 0.789-4.797 1.32-0.48 0.481-1.093 0.949-1.839 1.403-0.907 0.558-1.723 0.894-2.442 1-0.265 0.054-1.133 0.078-2.601 0.078-1.039 0-1.774 0.16-2.2 0.48-0.425 0.321-1.531 0.988-3.32 2l-2.519 1.442c1.066 2.664 2.039 5.254 2.921 7.757 0.266 0.774 0.504 1.215 0.719 1.321 0.188-0.024 0.305-0.039 0.36-0.039 0.082 0.027 0.16 1.734 0.242 5.121 0.105 3.597-0.043 7.277-0.442 11.039-0.48 3.547-0.773 5.906-0.879 7.078-0.187 1.684-0.281 2.789-0.281 3.32-0.027 0.723 0.067 1.84 0.281 3.364 0.184 1.25 0.625 3 1.321 5.238 0.746 2.398 1.199 4.027 1.359 4.879 0.32 1.789 1.613 4.855 3.879 9.199 2.586 4.91 5.027 8.508 7.32 10.801 2.586 2.613 4.149 4.215 4.68 4.801 0.613 0.695 1.453 1.761 2.52 3.199 0.718 0.961 1.535 2.066 2.441 3.32 0.613 0.828 1.211 1.414 1.801 1.762 0.906 0.531 3.039 2.211 6.398 5.039l3.281-2.32c2.399-1.786 4.161-3.227 5.278-4.321 0.082-0.078 0.988-1.078 2.722-3 0.586-0.664 1.094-1 1.52-1 0.719 0 2.051-0.265 4-0.801l0.48-3.238c0.344-2.375 0.637-4.055 0.879-5.039z" inkscape:connector-curvature="0"/>
      <path id="path142" style="fill-rule:evenodd;fill:#b2b3b5" d="m64.922 65.28c0.613-1.015 1.305-1.8 2.078-2.359 0.398-0.269 0.734-0.441 1-0.519l-2.801-0.321c-1.734-0.109-2.972-0.187-3.719-0.242-1.253-0.078-2.242-0.266-2.96-0.559-0.747-0.293-1.321-0.695-1.719-1.199l-0.403-0.679-5.078-0.321c-2.613 0.078-4.746 0.321-6.398 0.719-1.043 0.238-1.961 0.734-2.762 1.48l-0.84 1 0.801 2.598 1.399 0.402c1.066 0.266 1.894 0.399 2.48 0.399 0.934 0 2.84-0.492 5.719-1.481l1.203-2.398c0.933 1.227 1.426 1.973 1.476 2.238 1.336 0.348 1.989 1.215 1.961 2.602-0.054 2.16-0.492 4-1.32 5.519 0.106-0.16 0.453 0.559 1.039 2.161 0.16 0.507 0.27 1.132 0.32 1.878 0.614 0.137 1.149 0.227 1.602 0.282l-1.281-2.282 1.32-0.117c0.988-0.027 1.773 0.106 2.359 0.399 0.934 0.48 1.668 0.988 2.204 1.519l-0.082-6.121c-0.051-0.824 0.148-1.543 0.601-2.16 0.266-0.398 0.867-1.211 1.801-2.438z" inkscape:connector-curvature="0"/>
      <path id="path144" style="fill-rule:evenodd;fill:#b2b3b5" d="m39.922 49.402 0.758 0.437c0.613 0.32 1.187 0.535 1.718 0.641 0.883 0.215 2.321 0.254 4.321 0.121l1.082-3.403c0.133-0.558 0.211-0.984 0.238-1.277 0.027-0.508 0.016-1.254-0.039-2.242-0.055-1.465 0.188-3.598 0.719-6.399l-1.399 1.598c-0.933 2.082-1.441 3.723-1.519 4.922-0.028 0.746-0.176 1.227-0.442 1.441-0.664 0.371-1.386 0.891-2.16 1.559-0.961 0.828-1.785 1.508-2.48 2.039l-0.797 0.563z" inkscape:connector-curvature="0"/>
      <path id="path146" style="fill-rule:evenodd;fill:#b2b3b5" d="m81.039 52.839c0.402-0.238 0.762-0.519 1.082-0.84 0.371-0.371 0.801-1.597 1.277-3.679 0.43-2 0.696-3.813 0.801-5.442 0.082-1.332 0.254-2.344 0.52-3.039 0.16-0.426 0.453-1.012 0.883-1.758 0.293-0.586 0.343-1.136 0.16-1.64-0.082-0.243-0.203-0.426-0.364-0.563-2 1.067-3.398 1.469-4.199 1.203-0.801-0.269-0.894-1.933-0.277-5 0.133-0.695 0.359-1.429 0.68-2.203 0.078-0.16 0.41-0.851 1-2.078 0.476-0.934 0.851-3 1.117-6.199-1.68 1.199-2.52 2.094-2.52 2.679 0 0.586-0.398 1.387-1.199 2.399-0.855 1.066-1.414 1.242-1.68 0.519-0.187-0.531-0.547-1.277-1.082-2.238-0.664-1.199-1.238-2.32-1.718-3.359-0.586-1.309-0.719-2.934-0.399-4.883 0.184-0.957 0.414-1.797 0.68-2.52l-1.281 0.883c-0.665 1.067-1.106 2.106-1.321 3.117-0.105 0.586-0.027 1.602 0.242 3.043 0.321 1.571 0.481 2.387 0.481 2.438 0 0.187 0.25 1.055 0.758 2.601 0.508 1.575 0.785 2.68 0.84 3.321 0.054 0.933 0.015 2.051-0.122 3.359-0.16 1.442-0.359 2.414-0.597 2.918-0.188 0.457-0.481 0.828-0.879 1.121l-0.524 0.281 1.723 1 1.399 2.918 2.281 3.481c0.426 0.613 0.64 1.336 0.64 2.16 0 0.641-0.148 1.695-0.441 3.16l-0.398 2.481 1.918 0.601 0.519-0.242z" inkscape:connector-curvature="0"/>
      <path id="path148" style="fill-rule:evenodd;fill:#b2b3b5" d="m33.398 42.839c0.723-0.664 1.297-0.984 1.723-0.961 0.586 0.082 1.145-0.012 1.68-0.277l0.121-2.082c0.156-1.547 0.453-2.758 0.879-3.641 0.558-1.172 0.918-1.824 1.078-1.957 0.293-0.293 1-0.535 2.121-0.723 1.602-0.265 2.668-0.398 3.199-0.398l-1.719-1.082c-1.253-0.852-2.105-1.598-2.558-2.238-0.535-0.696-0.856-1.293-0.961-1.801-0.082-0.399-0.066-1.067 0.039-2 0.055-0.426-0.094-0.852-0.441-1.277-0.161-0.188 0.16-0.524 0.961-1 1.066-0.668 1.839-1.067 2.32-1.204 0.508-0.132 1.133-0.105 1.879 0.082 0.988 0.266 2.054 0.438 3.203 0.52l-1.281-1.32c-1.067-0.879-2.106-1.348-3.121-1.399-0.985-0.027-2.266 0.028-3.84 0.16l-2.078 0.239c-0.243-0.106-0.469-0.121-0.68-0.039-0.481 0.132-0.723 0.679-0.723 1.64 0 0.957-0.254 2.028-0.758 3.199-0.586 1.094-0.933 1.758-1.043 2l-0.117 0.282c0.184 0 0.293 0.078 0.321 0.238 0.023 0.293 0.078 1.895 0.16 4.801 0.105 3.359-0.016 6.773-0.364 10.238z" inkscape:connector-curvature="0"/>
      <path id="path150" style="fill-rule:evenodd;fill:#a4a4a8" d="m46.121 22.28 0.801 0.52 0.238-3.082c0.133-2.156 0.188-3.531 0.16-4.117-0.082-0.883-1.039-2.067-2.879-3.563-0.48 0.481-1.093 0.949-1.839 1.403-0.907 0.558-1.723 0.894-2.442 1-0.265 0.054-1.133 0.078-2.601 0.078-1.039 0-1.774 0.16-2.2 0.48-0.425 0.321-1.531 0.988-3.32 2l-2.519 1.442c0.695 1.734 1.402 3.586 2.121 5.558 0.746-1.972 1.398-3.347 1.961-4.121 0.371-0.504 0.664-0.891 0.878-1.16 0.079-0.051 0.758-0.023 2.04 0.082 1.734 0.133 2.812 0.227 3.242 0.281 0.851 0.078 1.504 0.211 1.957 0.399 0.668 0.265 2.136 1.199 4.402 2.8z" inkscape:connector-curvature="0"/>
      <path id="path152" style="fill-rule:evenodd;fill:#e3e4e6" d="m68 62.402-5-2.524-2-2.199c-0.586 0.215-1.547-0.012-2.879-0.68-1.789-0.879-3.496-2.012-5.121-3.398-0.48-0.43-1.441-0.922-2.879-1.481-1.254-0.48-1.988-0.894-2.199-1.242l-0.922-1.476c-0.055 0.265-0.039 0.585 0.039 0.957 0.133 0.722 0.496 1.293 1.082 1.722 1.758 1.254 2.758 1.985 3 2.199 0.32 0.348 1.184 1.52 2.598 3.52l2.281 1.801-0.039 0.519c0.184 0.399 0.734 0.719 1.641 0.961 0.957 0.266 2.718 0.547 5.277 0.84 2.187 0.238 3.535 0.359 4.043 0.359 0.398 0 0.758 0.04 1.078 0.122z" inkscape:connector-curvature="0"/>
      <path id="path154" style="fill-rule:evenodd;fill:#e3e4e6" d="m56.922 46.601c1.598 0.051 3.359 0.277 5.277 0.679l-9.48-3.082-0.321-0.679c-0.238-0.641-0.398-1.414-0.476-2.321-0.082-0.906-0.387-1.57-0.922-2-0.266-0.183-0.535-0.293-0.801-0.32l-1.199-3.277-0.879 4.801c1.067 0.796 1.691 1.625 1.879 2.476 0.133 0.563 0.215 1.32 0.238 2.281l-0.039 1.321 6.723 0.121z" inkscape:connector-curvature="0"/>
      <path id="path156" style="fill-rule:evenodd;fill:#e3e4e6" d="m56.16 82.718c1.918-0.504 3.442-0.824 4.559-0.957-5.039-0.375-7.574-0.602-7.598-0.68-0.055-0.109-0.695-0.187-1.922-0.242-1.597-0.078-2.664-0.16-3.199-0.238l-4.398-1 1.918 2.078c0.507 0.641 2.175 1.039 5 1.199 0.613 0.055 2.492 0 5.64-0.16z" inkscape:connector-curvature="0"/>
      <path id="path158" style="fill-rule:evenodd;fill:#e3e4e6" d="m69.281 81.8c1.012 0.16 1.785 0.305 2.321 0.441 0.746-0.214 1.476-0.535 2.199-0.961-1.067-0.453-1.934-0.679-2.602-0.679-0.371 0-0.785-0.481-1.238-1.442-0.695-1.519-1.176-2.48-1.441-2.879-0.559-0.773-0.907-1.226-1.04-1.359l-0.082 0.078c-1.253-0.078-2.679 0.121-4.277 0.602-0.988 0.293-1.883 0.586-2.68 0.879l-0.921 0.398 5 1.602 3.082 2.121c0.796 0.504 1.359 0.906 1.679 1.199z" inkscape:connector-curvature="0"/>
      <path id="path160" style="fill-rule:evenodd;fill:#d7dce0" d="m65.52 92.878c0.507-0.719 1.292-1.664 2.359-2.84 0.746-0.824 1.16-1.41 1.242-1.758 0.133-0.613-0.016-1.496-0.441-2.64-0.508-1.332-1.227-2.453-2.16-3.36-0.879-0.828-2.161-1.652-3.84-2.48l-2.282-1 1.922 4c0.481 1.066 0.813 2.227 1 3.48 0.133 0.985 0.16 1.719 0.078 2.2-0.023 0.347-0.531 0.601-1.519 0.761-0.906 0.133-1.801 0.145-2.68 0.039-1.625-0.214-2.387-1.281-2.277-3.199 0.023-0.855-0.602-1.32-1.883-1.402-1.945 0.105-3.586 0.176-4.918 0.199-1.309 0.027-2.519-0.078-3.641-0.316-0.933-0.188-2.082-0.547-3.441-1.082 1.149 1.652 2.242 3 3.281 4.039 2.586 2.613 4.149 4.215 4.68 4.801 0.613 0.695 1.453 1.761 2.52 3.199 0.718 0.961 1.535 2.066 2.441 3.32 0.613 0.828 1.211 1.414 1.801 1.762 0.105 0.027 0.332 0.172 0.679 0.437 0.879-0.636 2.118-1.918 3.719-3.84 1.305-1.546 2.426-2.984 3.36-4.32z" inkscape:connector-curvature="0"/>
      <path id="path162" style="fill-rule:evenodd;fill:#d7dce0" d="m43.281 73.198c1.465 0.641 2.946 1.375 4.438 2.204 1.496 0.824 3.043 1.316 4.64 1.476 0.801 0.082 1.453 0.082 1.961 0l2.52 0.203c1.762 0.078 2.855 0.012 3.281-0.203 0.664-0.316 1.492-0.613 2.481-0.879-0.59-0.879-1.547-1.519-2.883-1.918-0.824-0.242-1.574-0.297-2.239-0.16l-0.761 0.277 1.281 2.282c-1.465-0.453-2.934-0.985-4.398-1.602-1.016-0.398-1.907-0.906-2.68-1.519-0.695-0.504-1.094-0.934-1.203-1.278-0.078-0.215-0.067-0.722 0.043-1.519 0.133-1.149 0.211-2.067 0.238-2.762 0.055-0.961 0.359-1.855 0.922-2.68 0.266-0.402 0.531-0.707 0.797-0.922-0.746-0.132-2.414-0.039-5 0.282-1.625 0.215-3.012-0.094-4.16-0.918-0.586-0.403-1-0.828-1.239-1.282-0.668 1.813-1 3.614-1 5.399 0 1.121 0.2 2.254 0.602 3.402l0.598 1.399 1.761 0.718z" inkscape:connector-curvature="0"/>
      <path id="path164" style="fill-rule:evenodd;fill:#d7dce0" d="m75 71.081c-1.254-2.722-1.988-4.082-2.199-4.082-2.668 0.801-4.094 1.227-4.281 1.281-0.266 0.106-0.665 1.215-1.2 3.321-0.215 0.773-0.574 1.613-1.082 2.519l-0.718 1.078 1.281-0.199 4.719-1.597c1.652-0.618 2.812-1.387 3.48-2.321z" inkscape:connector-curvature="0"/>
      <path id="path166" style="fill-rule:evenodd;fill:#d7dce0" d="m75.52 81.601c2.585-1.469 3.855-2.403 3.8-2.801-0.054-0.238-0.398-0.52-1.039-0.84-0.746-0.32-1.242-0.547-1.48-0.68-0.321-0.187-0.774-0.121-1.36 0.2-0.535 0.32-1.441 1.027-2.722 2.121-1.039 0.851-2.039 1.344-3 1.48l-1.117-0.082 0.679 0.68c0.504 0.48 0.946 0.723 1.321 0.723 1.597 0 3.238-0.27 4.918-0.801z" inkscape:connector-curvature="0"/>
      <path id="path168" style="fill-rule:evenodd;fill:#d7dce0" d="m81.879 52.441c0.32-0.133 0.402-0.282 0.242-0.442-0.113 0.16-0.266 0.328-0.461 0.5 0.082-0.019 0.156-0.039 0.219-0.058zm-0.219 0.058c-0.722 0.149-2.144 0.117-4.262-0.097l-7.8-0.723c-1.524-1.785-2.657-2.879-3.403-3.277-0.453-0.243-0.894-0.442-1.32-0.602l-0.48-0.121c1.335 2 2.375 3.469 3.121 4.402 0.718 0.934 1.214 1.703 1.48 2.321l0.281 0.16c0.559 0.05 1.731-0.043 3.52-0.282 2.371-0.32 3.652-0.496 3.84-0.519 0.48-0.055 1.199-0.082 2.16-0.082 0.879 0 1.691-0.277 2.437-0.84 0.161-0.117 0.301-0.23 0.422-0.34h0.004z" inkscape:connector-curvature="0"/>
      <path id="path170" style="fill-rule:evenodd;fill:#d7dce0" d="m60.922 33.601 0.437-0.563c0.161-0.371-0.054-0.558-0.64-0.558h-5.52c-0.746 0-1.398-0.227-1.961-0.68l-1.437-1.199c-1.254-0.75-2.348-2.055-3.281-3.922-0.665-1.332-1.133-3.399-1.399-6.199-0.082 0.265-0.148 1.039-0.199 2.32l-0.32 7.078c0.796 0.617 1.718 1.297 2.757 2.043 2.055 1.492 3.641 2.547 4.762 3.16 1.094 0.614 2.172 0.692 3.238 0.239 0.641-0.293 1.829-0.868 3.563-1.719z" inkscape:connector-curvature="0"/>
      <path id="path172" style="fill-rule:evenodd;fill:#d7dce0" d="m39 53.402 3.121-1.321c0.399-0.187 1.934-0.679 4.598-1.48l-0.598-0.52c-1.547 0.078-2.723-0.054-3.519-0.402-0.43-0.184-0.977-0.625-1.641-1.32-0.883-0.934-1.602-1.625-2.16-2.079-0.774-0.613-1.348-1.574-1.723-2.878-0.156-0.668-0.25-1.27-0.277-1.801l-0.68 8.879 2.879 2.922z" inkscape:connector-curvature="0"/>
      <g id="g174">
        <g id="g176">
          <g id="g182">
            <path id="path190" style="fill-rule:evenodd;fill:url(#linearGradient184)" d="m59.602 51.198c-0.055-0.824-0.336-1.519-0.84-2.078-0.481-0.535-1.043-0.773-1.684-0.718-0.613 0.023-1.133 0.343-1.558 0.957-0.399 0.64-0.575 1.375-0.52 2.203 0.055 0.824 0.332 1.504 0.84 2.039 0.48 0.558 1.039 0.812 1.68 0.758 0.64-0.051 1.16-0.387 1.558-1 0.402-0.614 0.574-1.332 0.524-2.161z" inkscape:connector-curvature="0"/>
          </g>
        </g>
      </g>
      <g id="g192">
        <g id="g194">
          <g id="g200">
            <path id="path208" style="fill-rule:evenodd;fill:url(#linearGradient202)" d="m52.199 49.198c0.028-0.613-0.105-1.132-0.398-1.558-0.266-0.426-0.613-0.653-1.039-0.68-0.43-0.027-0.801 0.16-1.121 0.559-0.293 0.402-0.469 0.906-0.52 1.519-0.027 0.614 0.106 1.137 0.399 1.563 0.265 0.453 0.613 0.691 1.039 0.719 0.429 0.027 0.8-0.172 1.121-0.602 0.32-0.398 0.492-0.906 0.519-1.52z" inkscape:connector-curvature="0"/>
          </g>
        </g>
      </g>
      <g id="g210">
        <g id="g212">
          <g id="g218">
            <path id="path226" style="fill-rule:evenodd;fill:url(#linearGradient220)" d="m42.719 40.038c0.109-0.824-0.012-1.558-0.36-2.199-0.347-0.641-0.812-0.984-1.398-1.039-0.586-0.082-1.133 0.145-1.641 0.68-0.48 0.507-0.773 1.172-0.879 2-0.109 0.828 0.012 1.558 0.36 2.199 0.344 0.641 0.812 0.988 1.398 1.039 0.586 0.082 1.133-0.145 1.641-0.68 0.48-0.504 0.773-1.172 0.879-2z" inkscape:connector-curvature="0"/>
          </g>
        </g>
      </g>
      <g id="g228">
        <g id="g230">
          <g id="g236">
            <path id="path244" style="fill-rule:evenodd;fill:url(#linearGradient238)" d="m53.398 16.12c-0.05-0.828-0.332-1.519-0.839-2.082-0.481-0.558-1.039-0.812-1.68-0.758-0.613 0.028-1.133 0.36-1.559 1-0.398 0.614-0.574 1.332-0.519 2.161 0.054 0.824 0.332 1.519 0.84 2.078 0.48 0.535 1.039 0.789 1.679 0.761 0.641-0.054 1.16-0.386 1.559-1 0.402-0.613 0.574-1.335 0.519-2.16z" inkscape:connector-curvature="0"/>
          </g>
        </g>
      </g>
      <g id="g246">
        <g id="g248">
          <g id="g254">
            <path id="path262" style="fill-rule:evenodd;fill:url(#linearGradient256)" d="m59.078 26.999c-0.051-1.012-0.371-1.851-0.957-2.519-0.562-0.696-1.215-1.012-1.961-0.961-0.746 0.054-1.359 0.453-1.84 1.199-0.48 0.75-0.679 1.629-0.601 2.641 0.054 1.015 0.375 1.855 0.961 2.519 0.586 0.668 1.254 0.988 2 0.961 0.746-0.055 1.347-0.453 1.8-1.199 0.481-0.774 0.68-1.653 0.598-2.641z" inkscape:connector-curvature="0"/>
          </g>
        </g>
      </g>
      <g id="g264">
        <g id="g266">
          <g id="g272">
            <path id="path280" style="fill-rule:evenodd;fill:url(#linearGradient274)" d="m63.801 18.038c0.504-0.051 0.918-0.332 1.238-0.84 0.32-0.48 0.453-1.066 0.402-1.757-0.027-0.668-0.242-1.243-0.64-1.723-0.403-0.453-0.856-0.652-1.36-0.598-0.507 0.028-0.921 0.293-1.242 0.801-0.32 0.504-0.465 1.106-0.437 1.797 0.05 0.695 0.277 1.254 0.679 1.684 0.399 0.453 0.852 0.664 1.36 0.636z" inkscape:connector-curvature="0"/>
          </g>
        </g>
      </g>
      <g id="g282">
        <g id="g284">
          <g id="g290">
            <path id="path298" style="fill-rule:evenodd;fill:url(#linearGradient292)" d="m71.039 33.761c-0.184-0.828-0.57-1.469-1.16-1.922-0.559-0.453-1.145-0.613-1.758-0.48-0.613 0.16-1.066 0.574-1.359 1.242-0.321 0.664-0.387 1.398-0.203 2.199 0.187 0.828 0.574 1.465 1.16 1.918s1.187 0.617 1.801 0.48c0.613-0.16 1.066-0.57 1.359-1.238 0.32-0.668 0.375-1.398 0.16-2.199z" inkscape:connector-curvature="0"/>
          </g>
        </g>
      </g>
      <g id="g300">
        <g id="g302">
          <g id="g308">
            <path id="path316" style="fill-rule:evenodd;fill:url(#linearGradient310)" d="m40.52 57.402c-0.051-0.829-0.332-1.524-0.84-2.082-0.508-0.536-1.067-0.774-1.68-0.719-0.641 0.027-1.16 0.344-1.559 0.961-0.402 0.613-0.574 1.343-0.519 2.199 0.051 0.824 0.332 1.504 0.84 2.039 0.476 0.559 1.039 0.812 1.679 0.762 0.614-0.055 1.118-0.387 1.52-1 0.426-0.617 0.613-1.336 0.559-2.16z" inkscape:connector-curvature="0"/>
          </g>
        </g>
      </g>
      <g id="g318">
        <g id="g320">
          <g id="g326">
            <path id="path334" style="fill-rule:evenodd;fill:url(#linearGradient328)" d="m47.641 54.48c-0.133-0.719-0.453-1.293-0.961-1.719-0.481-0.426-1-0.586-1.559-0.481-0.562 0.106-0.988 0.454-1.281 1.04-0.293 0.585-0.371 1.242-0.238 1.96 0.105 0.719 0.41 1.293 0.918 1.719 0.507 0.426 1.027 0.586 1.558 0.481 0.563-0.106 1-0.453 1.32-1.039 0.297-0.586 0.375-1.243 0.243-1.961z" inkscape:connector-curvature="0"/>
          </g>
        </g>
      </g>
      <g id="g336">
        <g id="g338">
          <g id="g344">
            <path id="path352" style="fill-rule:evenodd;fill:url(#linearGradient346)" d="m46.199 68.241c0.055-0.746-0.094-1.386-0.437-1.921-0.321-0.508-0.735-0.774-1.242-0.801-0.508-0.051-0.961 0.176-1.36 0.679-0.375 0.508-0.586 1.122-0.64 1.84-0.028 0.723 0.121 1.364 0.441 1.922 0.344 0.508 0.773 0.785 1.277 0.84 0.508 0.027 0.961-0.215 1.364-0.719 0.371-0.508 0.57-1.121 0.597-1.84z" inkscape:connector-curvature="0"/>
          </g>
        </g>
      </g>
      <g id="g354">
        <g id="g356">
          <g id="g362">
            <path id="path370" style="fill-rule:evenodd;fill:url(#linearGradient364)" d="m54.559 88.441c-0.348-0.614-0.797-1.039-1.36-1.282-0.531-0.238-1.027-0.238-1.48 0-0.426 0.266-0.653 0.696-0.68 1.282-0.027 0.613 0.133 1.226 0.481 1.839 0.375 0.586 0.828 1.012 1.359 1.282 0.535 0.238 1.016 0.238 1.441 0 0.426-0.27 0.668-0.696 0.719-1.282 0.055-0.613-0.105-1.226-0.48-1.839z" inkscape:connector-curvature="0"/>
          </g>
        </g>
      </g>
      <g id="g372">
        <g id="g374">
          <g id="g380">
            <path id="path388" style="fill-rule:evenodd;fill:url(#linearGradient382)" d="m74.16 84.761c-0.027-0.613-0.226-1.121-0.601-1.52-0.371-0.402-0.813-0.574-1.321-0.523-0.476 0.027-0.879 0.269-1.199 0.723-0.293 0.453-0.426 0.972-0.398 1.558 0.054 0.586 0.265 1.082 0.64 1.481 0.371 0.398 0.797 0.586 1.278 0.558 0.48-0.051 0.882-0.293 1.203-0.718 0.316-0.454 0.453-0.973 0.398-1.559z" inkscape:connector-curvature="0"/>
          </g>
        </g>
      </g>
      <path id="path390" style="fill-rule:evenodd;fill:#83888c" d="m81.441 90.96c0.348-2.375 0.637-4.055 0.879-5.039 0.348-1.601 0.52-3.027 0.52-4.281l2.121-5.84 1.68-0.602c1.332-0.371 2.558-0.437 3.679-0.199 1.758 0.348 3.442 0.52 5.039 0.52l0.082-2.801c0.079-2.133 0.239-3.863 0.481-5.199 0.105-0.641 0.183-3.348 0.238-8.117 0.028-4.243 0.293-7.137 0.801-8.684 0.559-1.68 0.867-4.316 0.918-7.918 0.027-1.785-0.012-3.414-0.117-4.879l-0.524-1.961c-0.343-1.414-0.519-2.453-0.519-3.121 0-1.066 0.801-4.344 2.402-9.84-4.801-3.574-8.094-5.894-9.883-6.961-1.465-1.011-2.543-1.703-3.238-2.078-1.145-0.64-2.559-1.015-4.238-1.121-1.657-0.105-3.524-0.039-5.602 0.199l-2.64 0.364c-1.973-2.161-3.227-3.321-3.758-3.481-0.801-0.269-1.242-0.414-1.321-0.441-0.695-0.106-1.668-0.051-2.921 0.16-1.227 0.238-4.305 0.492-9.239 0.762l-7.043 0.316c-2.664 0.348-4.265 0.789-4.797 1.32-0.64 0.696-1.535 1.309-2.679 1.84l0.558 0.32c0.907 0.454 1.961 1.403 3.16 2.84l1.52 2.043 0.281-1.922c0.16-1.386 0.239-2.414 0.239-3.078 0-0.722 0.335-1.269 1-1.64 0.402-0.215 1.402-0.536 3-0.961 1.386-0.348 3.425-0.535 6.121-0.559 2.8-0.027 4.828 0.16 6.078 0.559 1.148 0.347 1.906 0.855 2.281 1.519 0.105 0.16 0.375 0.961 0.801 2.403 0.265 0.933 0.734 2.171 1.398 3.718 0.586 1.387 1.028 2.348 1.321 2.879 0.132 0.242 0.8 1.746 2 4.52 1.175 2.773 1.906 4.426 2.199 4.961 0.535 1.015 1 2.949 1.402 5.8l0.598-6.281c0.16-1.707-0.039-3.625-0.598-5.758-0.293-1.121-0.695-2.468-1.199-4.043-0.375-1.73-0.176-3.773 0.598-6.117 0.214-0.746 1.265-1.043 3.16-0.883 1.734 0.137 3.175 0.497 4.32 1.082 0.879 0.454 1.398 1.399 1.559 2.84 0.109 0.907 0.054 2.332-0.161 4.282-0.105 1.199-0.371 2.531-0.796 4l-0.602 1.878c0.348 1.172 0.719 2.348 1.121 3.52 0.774 2.398 1.238 3.668 1.399 3.801 0.375 0.265 0.468 1.691 0.281 4.277l-0.801 12.602c0.215 0.398 0.281 0.906 0.199 1.519v4.481c-0.664 0.8-1.664 1.265-3 1.398-0.824 0.082-2.894 0.535-6.199 1.363l-4.68 1.2c0.266 1.039 0.625 2.187 1.078 3.437 0.297 0.801 0.95 1.801 1.961 3 0.508 0.617 0.989 1.149 1.442 1.602l2.597 7.32c1.016 2.984 1.481 4.918 1.403 5.801-0.028 0.531-0.215 1.226-0.563 2.078l-0.519 1.121-0.321 8.16c0.856-0.105 2.043-0.359 3.563-0.762l0.48-3.238z" inkscape:connector-curvature="0"/>
      <path id="path392" style="fill-rule:evenodd;fill:#8d9296" d="m93.641 67.761c-0.055 1.785 0.011 3.199 0.199 4.238 0.215 1.172 0.32 2.16 0.32 2.961l-0.039 0.52 1.238 0.039 0.082-2.801c0.079-2.133 0.239-3.863 0.481-5.199 0.105-0.641 0.183-3.348 0.238-8.117 0.028-4.243 0.293-7.137 0.801-8.684 0.559-1.68 0.867-4.316 0.918-7.918 0.027-1.785-0.012-3.414-0.117-4.879l-0.524-1.961c-0.343-1.414-0.519-2.453-0.519-3.121 0-1.066 0.801-4.344 2.402-9.84l-4.121-3c0.266 0.746 0.465 1.496 0.602 2.242 0.078 0.637 0.132 1.012 0.16 1.118 0.078 0.242 0.144 1.121 0.199 2.64 0.051 1.281 0.078 2.133 0.078 2.563l-0.641 1.679c-0.398 1.067-0.543 1.84-0.437 2.321 0.105 0.504 0.172 1.343 0.199 2.519l-0.039 1.637c-0.187 1.496-0.281 2.469-0.281 2.922 0 0.293-0.332 0.441-1 0.441l-1-0.043 0.519 1.082c0.426 0.801 0.922 1.414 1.481 1.84 1.039 0.852 1.441 1.785 1.199 2.801-0.133 0.613-0.332 1.691-0.598 3.238-0.32 2-0.48 3.281-0.48 3.84 0 0.563-0.254 1.066-0.762 1.52-0.719 0.586-1.304 1.109-1.758 1.562-0.242 0.238-0.468 0.387-0.679 0.438 0.769 1.496 1.492 2.988 2.16 4.48 0.586 1.387 0.758 2.414 0.519 3.082-0.507 1.254-0.773 2.531-0.8 3.84z" inkscape:connector-curvature="0"/>
      <path id="path394" style="fill-rule:evenodd;fill:#8d9296" d="m81.441 91.038c0.293-2.105 0.586-3.812 0.879-5.117 0.348-1.601 0.52-3.027 0.52-4.281l2.121-5.84 1.68-0.602c1.332-0.371 2.558-0.437 3.679-0.199l1.321 0.199-1.602-1.437c-0.531-0.426-4.973-2.867-13.32-7.32 0 0.531 0.136 1.199 0.402 2 0.16 0.453 0.613 1.238 1.359 2.359 0.934 1.387 1.493 2.238 1.68 2.559 0.399 0.722 0.934 1.519 1.602 2.402 0.531 0.719 0.531 1.879 0 3.48l-0.403 0.797-2.039-1.238c0.106 0.266 0.239 0.574 0.399 0.918 0.293 0.641 0.574 1.109 0.84 1.402 0.453 0.426 0.773 0.907 0.961 1.442 0.082 0.133 0.121 0.453 0.121 0.957-0.028 0.746-0.028 1.359 0 1.84 0.054 0.668 0.066 1.253 0.039 1.761-0.055 0.692-0.106 1.399-0.16 2.121l-0.079 1.797z" inkscape:connector-curvature="0"/>
      <path id="path396" style="fill-rule:evenodd;fill:#8d9296" d="m91.121 55.241c0 0.211 0.024 0.411 0.078 0.598 0.106 0.402 0.293 0.574 0.563 0.52l-0.641-1.118z" inkscape:connector-curvature="0"/>
      <path id="path398" style="fill-rule:evenodd;fill:#73777a" d="m82.199 27.761 1.563 5.078 0.636-0.879c0.59-0.535 1.27-0.68 2.043-0.441 0.774 0.215 1.36 0.562 1.758 1.043 0.215 0.238 0.336 0.465 0.36 0.679l0.562-0.441c0.481-0.188 1.051 0 1.719 0.559 1.066 0.906 1.906 1.8 2.519 2.679l1.321 0.043c1.039 0.028 1.922 0.078 2.64 0.16-0.398-1.414-0.601-2.546-0.601-3.402 0-1.066 0.801-4.344 2.402-9.84-4.801-3.574-8.094-5.894-9.883-6.961-1.465-1.011-2.543-1.703-3.238-2.078-1.145-0.64-2.559-1.015-4.238-1.121-1.922-0.133-4.137-0.039-6.641 0.281l0.801 1.121c0.851-0.136 1.906-0.082 3.156 0.161 1.227 0.21 2.203 0.503 2.922 0.878 0.879 0.454 1.398 1.399 1.559 2.84 0.109 0.907 0.054 2.332-0.161 4.282-0.132 1.519-0.531 3.304-1.199 5.359z" inkscape:connector-curvature="0"/>
      <path id="path400" style="fill-rule:evenodd;fill:#e3e4e6" d="m85.398 75.601c1.707-0.75 3.348-0.949 4.922-0.602 1.758 0.348 3.442 0.52 5.039 0.52-0.586-0.774-1-1.68-1.238-2.719-0.266-1.121-0.562-1.906-0.883-2.359-0.613-1.52-1.183-2.84-1.718-3.961-0.961-2.188-2.254-3.973-3.879-5.36-1.707-1.492-3-2.199-3.879-2.121-1.414 0.508-2.961 0.946-4.641 1.321-2.109 0.453-4.215 0.945-6.32 1.48l-2.481 0.641c2.668 0.879 4.172 1.586 4.52 2.121 1.68 2.586 3.105 4.453 4.281 5.597l3.438 3.481 2.16 1.32 0.679 0.641z" inkscape:connector-curvature="0"/>
      <path id="path402" style="fill-rule:evenodd;fill:#e3e4e6" d="m67.441 103.32c2.399-1.786 4.161-3.227 5.278-4.321 0.082-0.078 0.988-1.078 2.722-3 0.586-0.664 1.094-1 1.52-1 0.719 0 2.051-0.265 4-0.801l0.039-0.117c-0.238-0.32-0.426-0.64-0.559-0.961-0.882-1.785-1.496-3.386-1.839-4.8-0.188-0.719-0.282-1.254-0.282-1.602-0.453 0.348-1.027 0.707-1.718 1.082-1.364 0.773-2.657 1.215-3.883 1.32-1.227 0.106-2.625 0.36-4.199 0.758l-1.961 0.563c-0.399 0.187-0.879 0.48-1.438 0.879-1.094 0.8-2.027 1.746-2.801 2.839-0.773 1.121-1.718 2.309-2.84 3.559l-1.441 1.523c-0.344 0-1.027-0.109-2.039-0.32 0.613 0.774 1.199 1.332 1.762 1.68 0.906 0.531 3.039 2.211 6.398 5.039l3.281-2.32z" inkscape:connector-curvature="0"/>
      <path id="path404" style="fill-rule:evenodd;fill:#f7f8fa" d="m68.32 90.081 4.282-0.402 1.519 1.601c0.399 0.399 0.867 1.133 1.399 2.2v-1c-0.215-0.852-0.52-1.52-0.918-2l-1-1.399 0.597-0.121c0.563-0.105 1.199-0.265 1.922-0.48 1.117-0.321 1.719-0.52 1.801-0.602 0.316 1.149 0.519 1.988 0.598 2.524 0.027 0.293 0.187 0.613 0.48 0.957 0.398 0.453 0.668 0.8 0.801 1.043l1.16 1.796-0.84-2.796-0.281-0.524c-0.188-0.476-0.293-1.078-0.32-1.797-0.079-1.121-0.415-2.347-1-3.679-1.415 0.718-2.454 1.343-3.122 1.878-0.984 0.801-2.343 1.2-4.078 1.2h-3.519c-1.469 0.347-2.426 0.812-2.879 1.398l-4.524 5.524c-1.117 1.597-1.918 2.558-2.398 2.878-0.293 0.215-0.746 0.332-1.359 0.36l-0.84-0.039 0.32 0.64c0.293 0.454 0.559 0.731 0.801 0.84 0.504 0.266 1.371 0.906 2.598 1.918l4.64 3.641-1.762-4.039c-0.851-0.75-1.586-1.32-2.199-1.722-0.371-0.238-0.679-0.492-0.918-0.758l-0.281-0.32 1.121-1 0.481-0.52c0.371-0.425 0.703-0.851 1-1.281 0.476-0.664 1.05-1.332 1.718-2l5-3.918z" inkscape:connector-curvature="0"/>
      <path id="path406" style="fill-rule:evenodd;fill:#f7f8fa" d="m84.121 60.679c1.012 0 1.934 0.414 2.758 1.242 0.48 0.481 1.055 1.199 1.723 2.16l3.918 4.52c-1.465-3.414-2.708-5.614-3.719-6.602-0.082-0.078-0.707-0.691-1.879-1.84-0.617-0.586-1.121-1.144-1.524-1.679-0.425-0.535-0.746-1.442-0.957-2.719-0.136-0.641-0.214-1.227-0.242-1.762v1.68c0 1.574-0.426 2.613-1.277 3.121-0.348 0.187-1.055 0.441-2.121 0.762-1.867 0.531-3.133 0.906-3.801 1.117-1.281 0.43-2.773 0.84-4.48 1.242l-2.2 0.52c0.426 0.32 3.188-0.094 8.282-1.243 1.597-0.343 3.437-0.519 5.519-0.519z" inkscape:connector-curvature="0"/>
      <path id="path408" style="fill-rule:evenodd;fill:#d3d4d6" d="m74.762 96.8c-0.907 0.215-1.508 0.32-1.801 0.32-0.586 0.028-1.027 0.051-1.32 0.078-0.563 0.055-1.055 0.028-1.481-0.078-0.828-0.668-1.586-1.093-2.281-1.281-1.332-0.344-2.746 0.348-4.238 2.082l1.078 0.199c0.828 0.215 1.496 0.547 2 1 0.293 0.266 0.773 0.801 1.441 1.598 0.481 0.617 0.879 0.988 1.199 1.121 1.36-1.039 2.481-1.984 3.36-2.84 0.586-0.586 1.269-1.32 2.043-2.199z" inkscape:connector-curvature="0"/>
      <path id="path410" style="fill-rule:evenodd;fill:#d3d4d6" d="m75.52 93.921 1.839-0.961-0.238-1.719c0-0.589-0.629-1.347-1.883-2.281-0.449-0.348-0.863-0.426-1.238-0.242l-0.398 0.363c0.636 0.719 1.144 1.481 1.519 2.278 0.344 0.8 0.481 1.656 0.399 2.562z" inkscape:connector-curvature="0"/>
      <path id="path412" style="fill-rule:evenodd;fill:#d3d4d6" d="m80.719 69.64c-0.719-0.535-1.574-1.508-2.559-2.922l-1.32-1.879c-0.188-0.266-0.985-0.801-2.399-1.598-0.64-0.347-1.586-0.457-2.839-0.32 1.89 0.691 2.972 1.238 3.238 1.641 1.68 2.586 3.105 4.453 4.281 5.597l3.438 3.481 2.16 1.32 0.679 0.641c1.707-0.75 3.348-0.949 4.922-0.602l1.961 0.281c0.664-0.613 1.024-1.425 1.078-2.441-0.027 0.266-0.066 0.52-0.121 0.762-0.105 0.453-0.199 0.597-0.277 0.437l-0.32-0.718c-0.215-0.399-0.375-0.868-0.481-1.399-0.105-0.562-0.254-0.934-0.441-1.121-0.321-0.215-0.614-0.465-0.879-0.762-0.348-0.398-0.586-0.543-0.719-0.437-0.133 0.238-0.254 0.426-0.359 0.558-0.215 0.348-0.657 0.266-1.321-0.238-0.109-0.082-0.48-0.453-1.121-1.121-0.586-0.613-1.054-1.039-1.398-1.281l-4.801-3.199c0 0.16 0.012 0.359 0.039 0.601 0.078 0.481 0.199 0.891 0.36 1.238 0.132 0.266 0.668 0.668 1.601 1.2 0.934 0.507 1.465 0.867 1.598 1.082 0.722 1.226 1.16 2.066 1.32 2.519 0.133 0.375-0.051 0.574-0.559 0.602-0.402 0.023-0.878-0.043-1.441-0.203-1.094-0.293-2.199-0.864-3.32-1.719z" inkscape:connector-curvature="0"/>
      <path id="path414" style="fill-rule:evenodd;fill:#8d9296" d="m94.16 47.241c-0.215-0.773-0.519-1.562-0.922-2.363-0.797-1.57-1.636-2.383-2.519-2.437-0.907-0.055-2.024 0.437-3.36 1.48l-1.718 1.598 5.48 1.32c2.293 0.535 3.305 0.668 3.039 0.402z" inkscape:connector-curvature="0"/>
      <path id="path416" style="fill-rule:evenodd;fill:#8d9296" d="m93.359 36.038v-2.078c-0.16-1.441-0.597-2.308-1.32-2.601-0.719-0.266-1.437-0.118-2.16 0.441-0.238 0.187-0.68 0.668-1.32 1.441-0.161 0.211-0.172 0.305-0.039 0.278 0.425-0.106 0.839-0.106 1.242 0 1.144 0.242 2.343 1.082 3.597 2.519z" inkscape:connector-curvature="0"/>
      <path id="path418" style="fill-rule:evenodd;fill:#8d9296" d="m84.84 30.96 2.519-1.719c0.188-0.347 0.188-0.746 0-1.203-0.105-0.293-0.16-0.89-0.16-1.797 0-0.457 0.016-0.882 0.039-1.281l0.922-2.121c0.078-0.16 0.535-0.559 1.36-1.199 0.402-0.32 0.8-0.625 1.199-0.922-1.864 0-3.067 0.269-3.598 0.801-0.613 0.586-1.094 1.054-1.441 1.402-0.614 0.664-1.028 1.305-1.239 1.918-0.214 0.613-0.214 1.813 0 3.602l0.399 2.519z" inkscape:connector-curvature="0"/>
      <path id="path420" style="fill-rule:evenodd;fill:#8d9296" d="m94.84 26.038v-0.718c-0.106-0.508-0.465-0.84-1.078-1-0.59-0.161-1.028-0.149-1.321 0.039l-0.281 0.359 2.68 1.32z" inkscape:connector-curvature="0"/>
      <path id="path422" style="fill-rule:evenodd;fill:#8d9296" d="m93.238 22.718c0.188-0.453 0.016-0.945-0.519-1.477-0.321-0.347-0.574-0.32-0.758 0.079l-0.199 0.718 1.476 0.68z" inkscape:connector-curvature="0"/>
      <path id="path424" style="fill-rule:evenodd;fill:#8d9296" d="m87.121 18.96c0-1.762-0.32-2.773-0.961-3.039-0.426-0.187-0.707-0.094-0.84 0.277-0.105 0.321-0.093 0.762 0.039 1.321 0.106 0.375 0.442 0.734 1 1.082 0.266 0.16 0.52 0.277 0.762 0.359z" inkscape:connector-curvature="0"/>
      <path id="path426" style="fill-rule:evenodd;fill:#73777a" d="m88.441 51.64c-0.453-0.375-0.949-0.574-1.48-0.602l-0.641 0.082-1.601 2.121 0.32 0.239c0.348 0.187 0.856 0.281 1.52 0.281 0.64 0 1.507 0.371 2.601 1.117 1.199 0.828 1.852 1.254 1.961 1.281l1.078-0.519c0.613-0.453 0.696-0.988 0.242-1.602-0.402-0.531-1.066-1-2-1.398-1.066-0.453-1.734-0.785-2-1z" inkscape:connector-curvature="0"/>
      <path id="path428" style="fill-rule:evenodd;fill:#73777a" d="m90.16 42.718c0.215-0.156 0.399-0.25 0.559-0.277 0.347-0.082 1.281 0.679 2.801 2.277l-0.282-1.758c-0.183-1.148-0.984-2.348-2.398-3.601-0.348-0.266-0.973-0.614-1.879-1.039-0.535-0.266-0.988-0.708-1.359-1.321-0.297-0.586-0.508-0.945-0.641-1.078-0.188-0.187-0.375-0.203-0.563-0.043-0.183 0.137-0.613 0.684-1.277 1.641-0.562 0.773-0.84 2.109-0.84 4l0.16 2.64 1.2 1.36 0.879-0.719c0.746-0.535 1.48-0.961 2.199-1.281 0.613-0.293 1.093-0.559 1.441-0.801z" inkscape:connector-curvature="0"/>
    </g>
  </g>
<metadata><rdf:RDF><cc:Work><dc:format>image/svg+xml</dc:format><dc:type rdf:resource="http://purl.org/dc/dcmitype/StillImage"/><cc:license rdf:resource="http://creativecommons.org/licenses/publicdomain/"/><dc:publisher><cc:Agent rdf:about="http://openclipart.org/"><dc:title>Openclipart</dc:title></cc:Agent></dc:publisher></cc:Work><cc:License rdf:about="http://creativecommons.org/licenses/publicdomain/"><cc:permits rdf:resource="http://creativecommons.org/ns#Reproduction"/><cc:permits rdf:resource="http://creativecommons.org/ns#Distribution"/><cc:permits rdf:resource="http://creativecommons.org/ns#DerivativeWorks"/></cc:License></rdf:RDF></metadata></svg>
